<?xml version="1.0" standalone="no"?>
<!DOCTYPE svg PUBLIC "-//W3C//DTD SVG 20010904//EN"
 "http://www.w3.org/TR/2001/REC-SVG-20010904/DTD/svg10.dtd">
<svg version="1.0" xmlns="http://www.w3.org/2000/svg"
 width="381.000000pt" height="322.000000pt" viewBox="0 0 381.000000 322.000000"
 preserveAspectRatio="xMidYMid meet">
<metadata>
Created by potrace 1.15, written by Peter Selinger 2001-2017
</metadata>
<g transform="translate(0.000000,322.000000) scale(0.100000,-0.100000)"
fill="#000000" stroke="none">
<path d="M381 3063 c1 -27 -2 -93 -6 -148 -6 -94 6 -195 30 -258 5 -13 3 -16
-8 -11 -26 10 -36 -28 -47 -168 -5 -73 -14 -158 -20 -188 -5 -30 -14 -114 -19
-185 -12 -165 -45 -424 -64 -501 -8 -32 -18 -96 -21 -141 -4 -48 -15 -100 -27
-128 -17 -38 -20 -58 -14 -100 6 -51 6 -52 -25 -65 -40 -16 -50 -37 -50 -100
0 -34 -11 -79 -35 -140 -43 -109 -43 -142 -6 -229 27 -60 29 -71 20 -111 -6
-25 -9 -86 -7 -136 3 -73 9 -101 31 -146 35 -71 64 -85 199 -98 270 -27 2860
-30 3221 -4 l97 7 0 149 c0 83 -7 306 -16 498 -16 366 -15 588 4 655 6 22 16
78 23 124 l12 84 -36 34 c-20 18 -46 33 -57 33 -21 0 -50 45 -50 79 0 23 37
125 99 274 23 54 41 109 41 122 0 12 12 49 26 81 31 71 94 315 94 367 0 50
-11 69 -81 144 -32 35 -70 83 -85 109 l-27 47 -71 -7 c-39 -3 -251 -9 -471
-12 l-400 -7 -30 -27 c-44 -40 -68 -50 -124 -50 -29 0 -91 -13 -144 -30 -52
-16 -117 -34 -145 -40 -30 -5 -73 -24 -103 -45 -57 -39 -77 -39 -120 1 -14 13
-33 24 -42 24 -9 0 -49 -20 -88 -44 -87 -55 -154 -67 -221 -42 -24 9 -90 20
-148 24 l-105 8 -45 -39 -45 -40 -105 2 c-181 3 -203 17 -213 131 -11 128 -55
213 -128 251 -45 23 -182 38 -346 39 l-102 0 0 -47z m534 -211 c1 -69 6 -94
22 -120 33 -53 61 -62 219 -69 l142 -6 26 26 c39 39 59 47 119 47 58 0 109
-14 145 -39 l23 -16 -1 -698 0 -697 980 0 980 0 0 -107 0 -108 -980 3 -980 2
0 -425 0 -425 -108 0 c-60 0 -231 3 -381 7 l-272 6 7 414 7 413 -357 0 -358 0
7 28 c3 15 17 38 29 52 34 36 46 64 46 104 l0 36 318 2 317 3 0 851 0 852 24
-24 c22 -22 24 -34 26 -112z"/>
</g>
</svg>
